# Blender v2.92.0 OBJ File: ''
# www.blender.org
mtllib test3.mtl
o Cube_Cube.001
v -1.000000 -1.000000 1.000000
v -1.000000 1.000000 1.000000
v -1.000000 -1.000000 -1.000000
v -1.000000 1.000000 -1.000000
v 1.000000 -1.000000 1.000000
v 1.000000 1.000000 1.000000
v 1.000000 -1.000000 -1.000000
v 1.000000 1.000000 -1.000000
v -0.429200 0.429200 -2.668247
v -0.429200 -0.429200 -2.668247
v 0.429200 0.429200 -2.668247
v -0.429200 0.664904 -3.656977
v -0.429200 -0.041552 -4.144594
v 0.429200 0.664904 -3.656977
v -0.429200 1.336794 -4.597963
v -0.429200 0.822572 -5.285296
v 0.429200 1.336794 -4.597963
v -0.429200 2.480812 -4.919491
v -0.429200 2.489760 -5.777844
v 0.429200 2.489760 -5.777844
v 0.429200 2.480812 -4.919491
v -1.385952 3.721613 -3.949752
v -1.385952 3.750506 -6.721507
v 1.385952 3.750506 -6.721507
v 1.385952 3.721613 -3.949752
vt 0.625000 0.000000
vt 0.375000 0.250000
vt 0.375000 0.000000
vt 0.625000 0.250000
vt 0.375000 0.250000
vt 0.625000 0.500000
vt 0.375000 0.750000
vt 0.375000 0.500000
vt 0.625000 0.750000
vt 0.375000 1.000000
vt 0.125000 0.750000
vt 0.125000 0.500000
vt 0.875000 0.500000
vt 0.625000 0.500000
vt 0.875000 0.500000
vt 0.875000 0.500000
vt 0.625000 0.250000
vt 0.375000 0.250000
vt 0.625000 0.500000
vt 0.875000 0.500000
vt 0.875000 0.500000
vt 0.625000 0.500000
vt 0.625000 0.250000
vt 0.375000 0.250000
vt 0.625000 0.250000
vt 0.375000 0.250000
vt 0.375000 0.250000
vt 0.625000 0.250000
vt 0.375000 0.500000
vt 0.625000 0.500000
vt 0.625000 0.500000
vt 0.125000 0.500000
vt 0.375000 0.500000
vt 0.875000 0.500000
vt 0.625000 0.250000
vt 0.625000 1.000000
vt 0.875000 0.750000
vt 0.125000 0.500000
vn -1.0000 0.0000 0.0000
vn -0.9461 0.0000 -0.3237
vn 1.0000 0.0000 0.0000
vn 0.0000 0.0000 1.0000
vn 0.0000 -1.0000 0.0000
vn 0.0000 1.0000 0.0000
vn 0.0000 0.9727 0.2319
vn 0.0000 0.9461 -0.3237
vn 0.0000 0.2706 0.9627
vn 0.0000 0.8138 0.5811
vn -0.7943 -0.6075 -0.0063
vn 0.0000 0.9999 0.0104
vn 0.7943 -0.6075 -0.0063
vn 0.0000 -0.5992 -0.8006
vn 0.0000 -0.6158 0.7879
usemtl None
s off
f 2/1/1 3/2/1 1/3/1
f 4/4/2 10/5/2 3/2/2
f 8/6/3 5/7/3 7/8/3
f 6/9/4 1/10/4 5/7/4
f 7/8/5 1/11/5 3/12/5
f 4/13/6 6/9/6 8/6/6
f 11/14/7 12/15/7 9/16/7
f 8/6/8 9/16/8 4/13/8
f 10/5/1 12/17/1 13/18/1
f 17/19/9 18/20/9 15/21/9
f 14/22/10 15/21/10 12/15/10
f 13/18/1 15/23/1 16/24/1
f 18/25/11 23/26/11 19/27/11
f 15/23/1 19/27/1 16/24/1
f 22/28/12 24/29/12 23/26/12
f 21/30/13 24/29/13 25/31/13
f 19/32/14 24/29/14 20/33/14
f 21/30/15 22/34/15 18/20/15
f 2/1/1 4/4/1 3/2/1
f 4/4/2 9/35/2 10/5/2
f 8/6/3 6/9/3 5/7/3
f 6/9/4 2/36/4 1/10/4
f 7/8/5 5/7/5 1/11/5
f 4/13/6 2/37/6 6/9/6
f 11/14/7 14/22/7 12/15/7
f 8/6/8 11/14/8 9/16/8
f 10/5/1 9/35/1 12/17/1
f 17/19/9 21/30/9 18/20/9
f 14/22/10 17/19/10 15/21/10
f 13/18/1 12/17/1 15/23/1
f 18/25/11 22/28/11 23/26/11
f 15/23/1 18/25/1 19/27/1
f 22/28/12 25/31/12 24/29/12
f 21/30/13 20/33/13 24/29/13
f 19/32/14 23/38/14 24/29/14
f 21/30/15 25/31/15 22/34/15
